<mxfile host="app.diagrams.net" agent="Mozilla/5.0 (Windows NT 10.0; Win64; x64; rv:133.0) Gecko/20100101 Firefox/133.0" version="24.8.4">
  <diagram id="C5RBs43oDa-KdzZeNtuy" name="Page-1">
    <mxGraphModel dx="1434" dy="822" grid="1" gridSize="10" guides="1" tooltips="1" connect="1" arrows="1" fold="1" page="1" pageScale="1" pageWidth="827" pageHeight="1169" math="0" shadow="0">
      <root>
        <mxCell id="WIyWlLk6GJQsqaUBKTNV-0" />
        <mxCell id="WIyWlLk6GJQsqaUBKTNV-1" parent="WIyWlLk6GJQsqaUBKTNV-0" />
        <mxCell id="7XD59qN4bTpCQ3L5G413-7" style="edgeStyle=orthogonalEdgeStyle;rounded=0;orthogonalLoop=1;jettySize=auto;html=1;exitX=1;exitY=0.5;exitDx=0;exitDy=0;entryX=0.5;entryY=1;entryDx=0;entryDy=0;" edge="1" parent="WIyWlLk6GJQsqaUBKTNV-1" source="7XD59qN4bTpCQ3L5G413-0" target="7XD59qN4bTpCQ3L5G413-3">
          <mxGeometry relative="1" as="geometry" />
        </mxCell>
        <mxCell id="7XD59qN4bTpCQ3L5G413-8" value="&lt;font style=&quot;font-size: 16px;&quot;&gt;CityId&lt;/font&gt;" style="edgeLabel;html=1;align=center;verticalAlign=middle;resizable=0;points=[];fontSize=24;" vertex="1" connectable="0" parent="7XD59qN4bTpCQ3L5G413-7">
          <mxGeometry x="-0.5253" y="-4" relative="1" as="geometry">
            <mxPoint x="110" y="-54" as="offset" />
          </mxGeometry>
        </mxCell>
        <mxCell id="7XD59qN4bTpCQ3L5G413-0" value="Location" style="rounded=0;whiteSpace=wrap;html=1;" vertex="1" parent="WIyWlLk6GJQsqaUBKTNV-1">
          <mxGeometry x="414" y="260" width="120" height="60" as="geometry" />
        </mxCell>
        <mxCell id="7XD59qN4bTpCQ3L5G413-5" style="edgeStyle=orthogonalEdgeStyle;rounded=0;orthogonalLoop=1;jettySize=auto;html=1;exitX=0;exitY=0.5;exitDx=0;exitDy=0;entryX=1;entryY=0.5;entryDx=0;entryDy=0;" edge="1" parent="WIyWlLk6GJQsqaUBKTNV-1" source="7XD59qN4bTpCQ3L5G413-0" target="7XD59qN4bTpCQ3L5G413-1">
          <mxGeometry relative="1" as="geometry" />
        </mxCell>
        <mxCell id="7XD59qN4bTpCQ3L5G413-6" value="&lt;font style=&quot;font-size: 16px;&quot;&gt;RestaurantChainId&lt;/font&gt;" style="edgeLabel;html=1;align=center;verticalAlign=middle;resizable=0;points=[];" vertex="1" connectable="0" parent="7XD59qN4bTpCQ3L5G413-5">
          <mxGeometry x="0.3113" y="1" relative="1" as="geometry">
            <mxPoint x="1" y="31" as="offset" />
          </mxGeometry>
        </mxCell>
        <mxCell id="7XD59qN4bTpCQ3L5G413-1" value="Restaurant Chain" style="rounded=0;whiteSpace=wrap;html=1;" vertex="1" parent="WIyWlLk6GJQsqaUBKTNV-1">
          <mxGeometry x="100" y="100" width="120" height="60" as="geometry" />
        </mxCell>
        <mxCell id="7XD59qN4bTpCQ3L5G413-2" value="User" style="rounded=0;whiteSpace=wrap;html=1;" vertex="1" parent="WIyWlLk6GJQsqaUBKTNV-1">
          <mxGeometry x="570" y="760" width="120" height="60" as="geometry" />
        </mxCell>
        <mxCell id="7XD59qN4bTpCQ3L5G413-3" value="City (ha van igény)*" style="rounded=0;whiteSpace=wrap;html=1;" vertex="1" parent="WIyWlLk6GJQsqaUBKTNV-1">
          <mxGeometry x="650" y="140" width="120" height="60" as="geometry" />
        </mxCell>
        <mxCell id="7XD59qN4bTpCQ3L5G413-20" style="edgeStyle=orthogonalEdgeStyle;rounded=0;orthogonalLoop=1;jettySize=auto;html=1;exitX=1;exitY=0.5;exitDx=0;exitDy=0;entryX=0;entryY=0.5;entryDx=0;entryDy=0;" edge="1" parent="WIyWlLk6GJQsqaUBKTNV-1" source="7XD59qN4bTpCQ3L5G413-9" target="7XD59qN4bTpCQ3L5G413-2">
          <mxGeometry relative="1" as="geometry" />
        </mxCell>
        <mxCell id="7XD59qN4bTpCQ3L5G413-21" value="UserId" style="edgeLabel;html=1;align=center;verticalAlign=middle;resizable=0;points=[];fontSize=16;" vertex="1" connectable="0" parent="7XD59qN4bTpCQ3L5G413-20">
          <mxGeometry x="0.5852" y="-3" relative="1" as="geometry">
            <mxPoint x="-131" y="-3" as="offset" />
          </mxGeometry>
        </mxCell>
        <mxCell id="7XD59qN4bTpCQ3L5G413-23" style="edgeStyle=orthogonalEdgeStyle;rounded=0;orthogonalLoop=1;jettySize=auto;html=1;exitX=0.5;exitY=1;exitDx=0;exitDy=0;entryX=0.5;entryY=0;entryDx=0;entryDy=0;" edge="1" parent="WIyWlLk6GJQsqaUBKTNV-1" source="7XD59qN4bTpCQ3L5G413-11" target="7XD59qN4bTpCQ3L5G413-9">
          <mxGeometry relative="1" as="geometry" />
        </mxCell>
        <mxCell id="7XD59qN4bTpCQ3L5G413-24" value="OrderId" style="edgeLabel;html=1;align=center;verticalAlign=middle;resizable=0;points=[];fontSize=16;" vertex="1" connectable="0" parent="7XD59qN4bTpCQ3L5G413-23">
          <mxGeometry x="-0.1143" y="2" relative="1" as="geometry">
            <mxPoint as="offset" />
          </mxGeometry>
        </mxCell>
        <mxCell id="7XD59qN4bTpCQ3L5G413-9" value="Order" style="rounded=0;whiteSpace=wrap;html=1;" vertex="1" parent="WIyWlLk6GJQsqaUBKTNV-1">
          <mxGeometry x="70" y="760" width="120" height="60" as="geometry" />
        </mxCell>
        <mxCell id="7XD59qN4bTpCQ3L5G413-12" style="edgeStyle=orthogonalEdgeStyle;rounded=0;orthogonalLoop=1;jettySize=auto;html=1;exitX=0.5;exitY=0;exitDx=0;exitDy=0;entryX=0.25;entryY=1;entryDx=0;entryDy=0;" edge="1" parent="WIyWlLk6GJQsqaUBKTNV-1" source="7XD59qN4bTpCQ3L5G413-10" target="7XD59qN4bTpCQ3L5G413-1">
          <mxGeometry relative="1" as="geometry" />
        </mxCell>
        <mxCell id="7XD59qN4bTpCQ3L5G413-19" value="&lt;font style=&quot;font-size: 16px;&quot;&gt;RestaurantChainId&lt;/font&gt;" style="edgeLabel;html=1;align=center;verticalAlign=middle;resizable=0;points=[];" vertex="1" connectable="0" parent="7XD59qN4bTpCQ3L5G413-12">
          <mxGeometry x="0.0207" y="-4" relative="1" as="geometry">
            <mxPoint as="offset" />
          </mxGeometry>
        </mxCell>
        <mxCell id="7XD59qN4bTpCQ3L5G413-10" value="Product" style="rounded=0;whiteSpace=wrap;html=1;" vertex="1" parent="WIyWlLk6GJQsqaUBKTNV-1">
          <mxGeometry x="70" y="450" width="120" height="60" as="geometry" />
        </mxCell>
        <mxCell id="7XD59qN4bTpCQ3L5G413-22" style="edgeStyle=orthogonalEdgeStyle;rounded=0;orthogonalLoop=1;jettySize=auto;html=1;exitX=0.5;exitY=0;exitDx=0;exitDy=0;entryX=0.5;entryY=1;entryDx=0;entryDy=0;" edge="1" parent="WIyWlLk6GJQsqaUBKTNV-1" source="7XD59qN4bTpCQ3L5G413-11" target="7XD59qN4bTpCQ3L5G413-10">
          <mxGeometry relative="1" as="geometry" />
        </mxCell>
        <mxCell id="7XD59qN4bTpCQ3L5G413-25" value="ProductId" style="edgeLabel;html=1;align=center;verticalAlign=middle;resizable=0;points=[];fontSize=16;" vertex="1" connectable="0" parent="7XD59qN4bTpCQ3L5G413-22">
          <mxGeometry x="0.0833" y="-1" relative="1" as="geometry">
            <mxPoint as="offset" />
          </mxGeometry>
        </mxCell>
        <mxCell id="7XD59qN4bTpCQ3L5G413-11" value="&lt;div&gt;OrderItem&lt;/div&gt;(kapcsoló tábla)" style="rounded=0;whiteSpace=wrap;html=1;" vertex="1" parent="WIyWlLk6GJQsqaUBKTNV-1">
          <mxGeometry x="70" y="630" width="120" height="60" as="geometry" />
        </mxCell>
        <mxCell id="7XD59qN4bTpCQ3L5G413-14" style="edgeStyle=orthogonalEdgeStyle;rounded=0;orthogonalLoop=1;jettySize=auto;html=1;exitX=0.5;exitY=0;exitDx=0;exitDy=0;entryX=0.5;entryY=1;entryDx=0;entryDy=0;" edge="1" parent="WIyWlLk6GJQsqaUBKTNV-1" source="7XD59qN4bTpCQ3L5G413-13" target="7XD59qN4bTpCQ3L5G413-0">
          <mxGeometry relative="1" as="geometry" />
        </mxCell>
        <mxCell id="7XD59qN4bTpCQ3L5G413-15" value="&lt;font style=&quot;font-size: 16px;&quot;&gt;LocationId&lt;/font&gt;" style="edgeLabel;html=1;align=center;verticalAlign=middle;resizable=0;points=[];" vertex="1" connectable="0" parent="7XD59qN4bTpCQ3L5G413-14">
          <mxGeometry x="-0.1806" y="-3" relative="1" as="geometry">
            <mxPoint as="offset" />
          </mxGeometry>
        </mxCell>
        <mxCell id="7XD59qN4bTpCQ3L5G413-16" style="edgeStyle=orthogonalEdgeStyle;rounded=0;orthogonalLoop=1;jettySize=auto;html=1;exitX=0;exitY=0.5;exitDx=0;exitDy=0;entryX=1;entryY=0.5;entryDx=0;entryDy=0;" edge="1" parent="WIyWlLk6GJQsqaUBKTNV-1" source="7XD59qN4bTpCQ3L5G413-13" target="7XD59qN4bTpCQ3L5G413-10">
          <mxGeometry relative="1" as="geometry" />
        </mxCell>
        <mxCell id="7XD59qN4bTpCQ3L5G413-17" value="&lt;font style=&quot;font-size: 16px;&quot;&gt;ProductId&lt;/font&gt;" style="edgeLabel;html=1;align=center;verticalAlign=middle;resizable=0;points=[];" vertex="1" connectable="0" parent="7XD59qN4bTpCQ3L5G413-16">
          <mxGeometry x="-0.0179" relative="1" as="geometry">
            <mxPoint as="offset" />
          </mxGeometry>
        </mxCell>
        <mxCell id="7XD59qN4bTpCQ3L5G413-13" value="ExcludedProduct (kapcsoló tábla)**" style="rounded=0;whiteSpace=wrap;html=1;" vertex="1" parent="WIyWlLk6GJQsqaUBKTNV-1">
          <mxGeometry x="414" y="450" width="120" height="60" as="geometry" />
        </mxCell>
        <mxCell id="7XD59qN4bTpCQ3L5G413-26" value="*City, County, Country táblák keresés céljából User oldalról" style="text;html=1;align=center;verticalAlign=middle;whiteSpace=wrap;rounded=0;" vertex="1" parent="WIyWlLk6GJQsqaUBKTNV-1">
          <mxGeometry x="650" y="50" width="140" height="80" as="geometry" />
        </mxCell>
        <mxCell id="7XD59qN4bTpCQ3L5G413-27" value="**A Product tábla alapulhat a Location-ökön is, és akkor nincs szükség ExcludedProduct táblára, viszont nincs adat duplikálás ebben az esetben" style="text;html=1;align=center;verticalAlign=middle;whiteSpace=wrap;rounded=0;" vertex="1" parent="WIyWlLk6GJQsqaUBKTNV-1">
          <mxGeometry x="414" y="520" width="236" height="95" as="geometry" />
        </mxCell>
      </root>
    </mxGraphModel>
  </diagram>
</mxfile>
